<svg width="28" height="28" viewBox="0 0 28 28" fill="none" xmlns="http://www.w3.org/2000/svg">
<path d="M3.25 13.2146C3.25 13.6716 3.60156 14.0671 4.16406 14.0671C4.43652 14.0671 4.68262 13.9177 4.90234 13.7419L5.9043 12.8982V21.072C5.9043 22.3728 6.68652 23.1462 8.03125 23.1462H19.9229C21.2588 23.1462 22.0498 22.3728 22.0498 21.072V12.8542L23.1045 13.7419C23.3154 13.9177 23.5615 14.0671 23.834 14.0671C24.3525 14.0671 24.748 13.7419 24.748 13.2322C24.748 12.9333 24.6338 12.696 24.4053 12.5027L22.0498 10.5164V6.77222C22.0498 6.37671 21.7949 6.13062 21.3994 6.13062H20.1865C19.7998 6.13062 19.5361 6.37671 19.5361 6.77222V8.40698L15.2559 4.81226C14.4912 4.17065 13.5244 4.17065 12.7598 4.81226L3.60156 12.5027C3.36426 12.696 3.25 12.9597 3.25 13.2146ZM16.5303 15.6404C16.5303 15.2273 16.2666 14.9636 15.8535 14.9636H12.1621C11.749 14.9636 11.4766 15.2273 11.4766 15.6404V21.3972H8.49707C7.95215 21.3972 7.65332 21.0896 7.65332 20.5359V11.4304L13.6211 6.42065C13.8672 6.20972 14.1484 6.20972 14.3945 6.42065L20.292 11.3777V20.5359C20.292 21.0896 19.9932 21.3972 19.4482 21.3972H16.5303V15.6404Z" fill="#3D3E40"/>
</svg>
